<svg width="158" height="40" viewBox="0 0 158 40" fill="none" xmlns="http://www.w3.org/2000/svg">
    <path
        d="M3.84125 8.12H5.44125L15.1613 25.32L24.8413 8.12H26.3213V35.96H3.84125V8.12ZM5.32125 34.52H24.8413V11.12L15.8413 26.96H14.4413L5.32125 10.88V34.52ZM103.909 7.56C105.989 7.56 107.909 8.08 109.669 9.12C111.429 10.1333 112.816 11.52 113.829 13.28C114.869 15.04 115.389 16.96 115.389 19.04V25.12C115.389 27.2 114.869 29.12 113.829 30.88C112.816 32.64 111.429 34.04 109.669 35.08C107.909 36.0933 105.989 36.6 103.909 36.6C101.829 36.6 99.9094 36.0933 98.1494 35.08C96.3894 34.04 94.9894 32.64 93.9494 30.88C92.936 29.12 92.4294 27.2 92.4294 25.12V19.04C92.4294 16.96 92.936 15.04 93.9494 13.28C94.9894 11.52 96.3894 10.1333 98.1494 9.12C99.9094 8.08 101.829 7.56 103.909 7.56ZM93.9094 25.12C93.9094 26.9333 94.3494 28.6133 95.2294 30.16C96.136 31.68 97.3494 32.8933 98.8694 33.8C100.416 34.68 102.096 35.12 103.909 35.12C105.723 35.12 107.389 34.68 108.909 33.8C110.456 32.8933 111.669 31.68 112.549 30.16C113.456 28.6133 113.909 26.9333 113.909 25.12V19.04C113.909 17.2267 113.456 15.56 112.549 14.04C111.669 12.4933 110.456 11.28 108.909 10.4C107.389 9.49333 105.723 9.04 103.909 9.04C102.096 9.04 100.416 9.49333 98.8694 10.4C97.3494 11.28 96.136 12.4933 95.2294 14.04C94.3494 15.56 93.9094 17.2267 93.9094 19.04V25.12Z"
        fill="black" />
    <path
        d="M44.6906 7.56C46.7706 7.56 48.6906 8.08 50.4506 9.12C52.2106 10.1333 53.5973 11.52 54.6106 13.28C55.6506 15.04 56.1706 16.96 56.1706 19.04V25.12C56.1706 27.2 55.6506 29.12 54.6106 30.88C53.5973 32.64 52.2106 34.04 50.4506 35.08C48.6906 36.0933 46.7706 36.6 44.6906 36.6C42.6106 36.6 40.6906 36.0933 38.9306 35.08C37.1706 34.04 35.7706 32.64 34.7306 30.88C33.7173 29.12 33.2106 27.2 33.2106 25.12V19.04C33.2106 16.96 33.7173 15.04 34.7306 13.28C35.7706 11.52 37.1706 10.1333 38.9306 9.12C40.6906 8.08 42.6106 7.56 44.6906 7.56ZM34.6906 25.12C34.6906 26.9333 35.1306 28.6133 36.0106 30.16C36.9173 31.68 38.1306 32.8933 39.6506 33.8C41.1973 34.68 42.8773 35.12 44.6906 35.12C46.504 35.12 48.1706 34.68 49.6906 33.8C51.2373 32.8933 52.4506 31.68 53.3306 30.16C54.2373 28.6133 54.6906 26.9333 54.6906 25.12V19.04C54.6906 17.2267 54.2373 15.56 53.3306 14.04C52.4506 12.4933 51.2373 11.28 49.6906 10.4C48.1706 9.49333 46.504 9.04 44.6906 9.04C42.8773 9.04 41.1973 9.49333 39.6506 10.4C38.1306 11.28 36.9173 12.4933 36.0106 14.04C35.1306 15.56 34.6906 17.2267 34.6906 19.04V25.12ZM84.1 30.28C83.38 32.12 82.0733 33.64 80.18 34.84C78.2867 36.0133 76.26 36.6 74.1 36.6C72.02 36.6 70.1 36.08 68.34 35.04C66.58 34 65.18 32.5733 64.14 30.76C63.1267 28.92 62.62 26.9067 62.62 24.72V19.12C62.62 16.9867 63.1267 15.04 64.14 13.28C65.18 11.52 66.5667 10.1333 68.3 9.12C70.06 8.08 71.9933 7.56 74.1 7.56C75.8333 7.56 77.42 7.85333 78.86 8.44C80.3 9 81.5267 9.82667 82.54 10.92C83.3667 11.8267 84.0333 12.84 84.54 13.96C85.0733 15.08 85.34 16.2133 85.34 17.36H83.9C83.8733 16.3733 83.62 15.4 83.14 14.44C82.6867 13.48 82.1 12.6133 81.38 11.84C79.5933 9.97333 77.1667 9.04 74.1 9.04C72.26 9.04 70.5667 9.49333 69.02 10.4C67.5 11.28 66.3 12.4933 65.42 14.04C64.54 15.56 64.1 17.2533 64.1 19.12V24.72C64.1 26.6667 64.54 28.44 65.42 30.04C66.3267 31.6133 67.54 32.8533 69.06 33.76C70.6067 34.6667 72.2867 35.12 74.1 35.12C75.94 35.12 77.62 34.68 79.14 33.8C80.6867 32.8933 81.9 31.68 82.78 30.16C83.66 28.6133 84.1 26.9333 84.1 25.12V23.72H74.1V22.24H85.58V36H84.1V30.28Z"
        fill="#121CFF" />
    <path d="M125.88 32.56L134.573 23.8667C135.6 22.84 135.6 21.16 134.573 20.1333L125.88 11.44" stroke="black"
        stroke-width="1.5" stroke-miterlimit="10" stroke-linecap="round" stroke-linejoin="round" />
    <path d="M137.88 32.56L146.573 23.8667C147.6 22.84 147.6 21.16 146.573 20.1333L137.88 11.44" stroke="black"
        stroke-width="1.5" stroke-miterlimit="10" stroke-linecap="round" stroke-linejoin="round" />
</svg>